0
SECTION
2
HEADER
9
$INSUNITS
70
4
0
ENDSEC
0
SECTION
2
TABLES
0
TABLE
2
LTYPE
0
LTYPE
72
65
70
64
2
CONTINUOUS
3
______
73
0
40
0
0
ENDTAB
0
TABLE
2
LAYER
0
ENDTAB
0
ENDSEC
0
SECTION
2
ENTITIES
0
LINE
8
0
10
9.25
20
-8.25
11
26.75
21
-8.25
0
LINE
8
0
10
26.75
20
-8.25
11
26.75
21
8.25
0
LINE
8
0
10
26.75
20
8.25
11
9.25
21
8.25
0
LINE
8
0
10
9.25
20
8.25
11
9.25
21
-8.25
0
LINE
8
0
10
9.25
20
8.75
11
26.75
21
8.75
0
LINE
8
0
10
26.75
20
8.75
11
26.75
21
25.25
0
LINE
8
0
10
26.75
20
25.25
11
9.25
21
25.25
0
LINE
8
0
10
9.25
20
25.25
11
9.25
21
8.75
0
LINE
8
0
10
9.25
20
25.75
11
26.75
21
25.75
0
LINE
8
0
10
26.75
20
25.75
11
26.75
21
42.25
0
LINE
8
0
10
26.75
20
42.25
11
9.25
21
42.25
0
LINE
8
0
10
9.25
20
42.25
11
9.25
21
25.75
0
LINE
8
0
10
9.25
20
42.75
11
26.75
21
42.75
0
LINE
8
0
10
26.75
20
42.75
11
26.75
21
59.25
0
LINE
8
0
10
26.75
20
59.25
11
9.25
21
59.25
0
LINE
8
0
10
9.25
20
59.25
11
9.25
21
42.75
0
LINE
8
0
10
27.25
20
-8.25
11
44.75
21
-8.25
0
LINE
8
0
10
44.75
20
-8.25
11
44.75
21
8.25
0
LINE
8
0
10
44.75
20
8.25
11
27.25
21
8.25
0
LINE
8
0
10
27.25
20
8.25
11
27.25
21
-8.25
0
LINE
8
0
10
27.25
20
8.75
11
44.75
21
8.75
0
LINE
8
0
10
44.75
20
8.75
11
44.75
21
25.25
0
LINE
8
0
10
44.75
20
25.25
11
27.25
21
25.25
0
LINE
8
0
10
27.25
20
25.25
11
27.25
21
8.75
0
LINE
8
0
10
27.25
20
25.75
11
44.75
21
25.75
0
LINE
8
0
10
44.75
20
25.75
11
44.75
21
42.25
0
LINE
8
0
10
44.75
20
42.25
11
27.25
21
42.25
0
LINE
8
0
10
27.25
20
42.25
11
27.25
21
25.75
0
LINE
8
0
10
27.25
20
42.75
11
44.75
21
42.75
0
LINE
8
0
10
44.75
20
42.75
11
44.75
21
59.25
0
LINE
8
0
10
44.75
20
59.25
11
27.25
21
59.25
0
LINE
8
0
10
27.25
20
59.25
11
27.25
21
42.75
0
LINE
8
0
10
45.25
20
-8.25
11
62.75
21
-8.25
0
LINE
8
0
10
62.75
20
-8.25
11
62.75
21
8.25
0
LINE
8
0
10
62.75
20
8.25
11
45.25
21
8.25
0
LINE
8
0
10
45.25
20
8.25
11
45.25
21
-8.25
0
LINE
8
0
10
45.25
20
8.75
11
62.75
21
8.75
0
LINE
8
0
10
62.75
20
8.75
11
62.75
21
25.25
0
LINE
8
0
10
62.75
20
25.25
11
45.25
21
25.25
0
LINE
8
0
10
45.25
20
25.25
11
45.25
21
8.75
0
LINE
8
0
10
45.25
20
25.75
11
62.75
21
25.75
0
LINE
8
0
10
62.75
20
25.75
11
62.75
21
42.25
0
LINE
8
0
10
62.75
20
42.25
11
45.25
21
42.25
0
LINE
8
0
10
45.25
20
42.25
11
45.25
21
25.75
0
LINE
8
0
10
45.25
20
42.75
11
62.75
21
42.75
0
LINE
8
0
10
62.75
20
42.75
11
62.75
21
59.25
0
LINE
8
0
10
62.75
20
59.25
11
45.25
21
59.25
0
LINE
8
0
10
45.25
20
59.25
11
45.25
21
42.75
0
LINE
8
0
10
63.25
20
-8.25
11
80.75
21
-8.25
0
LINE
8
0
10
80.75
20
-8.25
11
80.75
21
8.25
0
LINE
8
0
10
80.75
20
8.25
11
63.25
21
8.25
0
LINE
8
0
10
63.25
20
8.25
11
63.25
21
-8.25
0
LINE
8
0
10
63.25
20
8.75
11
80.75
21
8.75
0
LINE
8
0
10
80.75
20
8.75
11
80.75
21
25.25
0
LINE
8
0
10
80.75
20
25.25
11
63.25
21
25.25
0
LINE
8
0
10
63.25
20
25.25
11
63.25
21
8.75
0
LINE
8
0
10
63.25
20
25.75
11
80.75
21
25.75
0
LINE
8
0
10
80.75
20
25.75
11
80.75
21
42.25
0
LINE
8
0
10
80.75
20
42.25
11
63.25
21
42.25
0
LINE
8
0
10
63.25
20
42.25
11
63.25
21
25.75
0
LINE
8
0
10
63.25
20
42.75
11
80.75
21
42.75
0
LINE
8
0
10
80.75
20
42.75
11
80.75
21
59.25
0
LINE
8
0
10
80.75
20
59.25
11
63.25
21
59.25
0
LINE
8
0
10
63.25
20
59.25
11
63.25
21
42.75
0
LINE
8
0
10
81.25
20
-8.25
11
98.75
21
-8.25
0
LINE
8
0
10
98.75
20
-8.25
11
98.75
21
8.25
0
LINE
8
0
10
98.75
20
8.25
11
81.25
21
8.25
0
LINE
8
0
10
81.25
20
8.25
11
81.25
21
-8.25
0
LINE
8
0
10
81.25
20
8.75
11
98.75
21
8.75
0
LINE
8
0
10
98.75
20
8.75
11
98.75
21
25.25
0
LINE
8
0
10
98.75
20
25.25
11
81.25
21
25.25
0
LINE
8
0
10
81.25
20
25.25
11
81.25
21
8.75
0
LINE
8
0
10
81.25
20
25.75
11
98.75
21
25.75
0
LINE
8
0
10
98.75
20
25.75
11
98.75
21
42.25
0
LINE
8
0
10
98.75
20
42.25
11
81.25
21
42.25
0
LINE
8
0
10
81.25
20
42.25
11
81.25
21
25.75
0
LINE
8
0
10
81.25
20
42.75
11
98.75
21
42.75
0
LINE
8
0
10
98.75
20
42.75
11
98.75
21
59.25
0
LINE
8
0
10
98.75
20
59.25
11
81.25
21
59.25
0
LINE
8
0
10
81.25
20
59.25
11
81.25
21
42.75
0
LINE
8
0
10
99.25
20
-8.25
11
116.75
21
-8.25
0
LINE
8
0
10
116.75
20
-8.25
11
116.75
21
8.25
0
LINE
8
0
10
116.75
20
8.25
11
99.25
21
8.25
0
LINE
8
0
10
99.25
20
8.25
11
99.25
21
-8.25
0
LINE
8
0
10
99.25
20
8.75
11
116.75
21
8.75
0
LINE
8
0
10
116.75
20
8.75
11
116.75
21
25.25
0
LINE
8
0
10
116.75
20
25.25
11
99.25
21
25.25
0
LINE
8
0
10
99.25
20
25.25
11
99.25
21
8.75
0
LINE
8
0
10
99.25
20
25.75
11
116.75
21
25.75
0
LINE
8
0
10
116.75
20
25.75
11
116.75
21
42.25
0
LINE
8
0
10
116.75
20
42.25
11
99.25
21
42.25
0
LINE
8
0
10
99.25
20
42.25
11
99.25
21
25.75
0
LINE
8
0
10
99.25
20
42.75
11
116.75
21
42.75
0
LINE
8
0
10
116.75
20
42.75
11
116.75
21
59.25
0
LINE
8
0
10
116.75
20
59.25
11
99.25
21
59.25
0
LINE
8
0
10
99.25
20
59.25
11
99.25
21
42.75
0
LINE
8
0
10
80.85
20
-25.25
11
98.35
21
-25.25
0
LINE
8
0
10
98.35
20
-25.25
11
98.35
21
-8.75
0
LINE
8
0
10
98.35
20
-8.75
11
80.85
21
-8.75
0
LINE
8
0
10
80.85
20
-8.75
11
80.85
21
-25.25
0
LINE
8
0
10
98.9061862
20
-25.3232233
11
115.8098882
21
-29.8525566
0
LINE
8
0
10
115.8098882
20
-29.8525566
11
120.0804024
21
-13.9147805
0
LINE
8
0
10
120.0804024
20
-13.9147805
11
103.1767004
21
-9.3854472
0
LINE
8
0
10
103.1767004
20
-9.3854472
11
98.9061862
21
-25.3232233
0
LINE
8
0
10
125.2884826
20
-14.7146638
11
116.5384826
21
-29.8701084
0
LINE
8
0
10
116.5384826
20
-29.8701084
11
130.8279018
21
-38.1201084
0
LINE
8
0
10
130.8279018
20
-38.1201084
11
139.5779018
21
-22.9646638
0
LINE
8
0
10
139.5779018
20
-22.9646638
11
125.2884826
21
-14.7146638
0
ENDSEC
0
EOF