0
SECTION
2
HEADER
9
$INSUNITS
70
4
0
ENDSEC
0
SECTION
2
TABLES
0
TABLE
2
LTYPE
0
LTYPE
72
65
70
64
2
CONTINUOUS
3
______
73
0
40
0
0
ENDTAB
0
TABLE
2
LAYER
0
ENDTAB
0
ENDSEC
0
SECTION
2
ENTITIES
0
LINE
8
0
10
10
20
-9
11
73.0196754
21
-9
0
LINE
8
0
10
8
20
-7
11
8
21
58
0
LINE
8
0
10
10
20
60
11
121.51
21
60
0
LINE
8
0
10
132.27
20
60
11
134.7
21
60
0
LINE
8
0
10
117.5
20
0.1269928
11
117.5
21
6.5
0
LINE
8
0
10
81.6
20
-26
11
98.2708685
21
-26
0
LINE
8
0
10
79.6
20
-24
11
79.6
21
-15.8065135
0
LINE
8
0
10
98.7885065
20
-26.0681483
11
108.2572677
21
-28.6052952
0
LINE
8
0
10
131.8524208
20
-37.8455893
11
139.6024208
21
-24.4221956
0
LINE
8
0
10
116.6537369
20
-31.3800261
11
129.12037
21
-38.5776401
0
LINE
8
0
10
131.9337942
20
-17.6853109
11
138.87037
21
-21.6901448
0
LINE
8
0
10
74.4675461
20
-9.6202644
11
79.0478707
21
-14.4267779
0
LINE
8
0
10
108.3514059
20
-28.6330119
11
115.7578688
21
-31.0126213
0
LINE
8
0
10
115.7578688
20
-31.0126213
11
116.6537369
21
-31.3800261
0
LINE
8
0
10
131.3989293
20
-17.2355197
11
117.9651351
21
-1.1552669
0
LINE
8
0
10
136.7
20
10.5
11
136.7
21
58
0
LINE
8
0
10
119.5
20
8.5
11
134.7
21
8.5
0
ARC
8
0
10
73.0196754
20
-11
40
2
50
43.6196438
51
90
0
ARC
8
0
10
77.6
20
-15.8065135
40
2
50
0
51
43.6196438
0
ARC
8
0
10
81.6
20
-24
40
2
50
180
51
270
0
ARC
8
0
10
98.2708685
20
-28
40
2
50
75.0000021
51
90
0
ARC
8
0
10
107.7396297
20
-30.5371469
40
2
50
72.1883984
51
75.0000021
0
ARC
8
0
10
130.12037
20
-36.8455893
40
2
50
239.9999999
51
329.9999999
0
ARC
8
0
10
137.87037
20
-23.4221956
40
2
50
329.9999999
51
59.9999999
0
ARC
8
0
10
132.9337942
20
-15.9532601
40
2
50
219.8761197
51
239.9999999
0
ARC
8
0
10
119.5
20
0.1269928
40
2
50
180
51
219.8761197
0
ARC
8
0
10
119.5
20
6.5
40
2
50
90
51
180
0
ARC
8
0
10
134.7
20
10.5
40
2
50
270
51
0
0
ARC
8
0
10
134.7
20
58
40
2
50
0
51
90
0
ARC
8
0
10
10
20
58
40
2
50
90
51
180
0
ARC
8
0
10
10
20
-7
40
2
50
180
51
270
0
LINE
8
0
10
11.25
20
-8.25
11
24.75
21
-8.25
0
LINE
8
0
10
26.75
20
-6.25
11
26.75
21
6.25
0
LINE
8
0
10
24.75
20
8.25
11
11.25
21
8.25
0
LINE
8
0
10
9.25
20
6.25
11
9.25
21
-6.25
0
LINE
8
0
10
11.25
20
8.75
11
24.75
21
8.75
0
LINE
8
0
10
26.75
20
10.75
11
26.75
21
23.25
0
LINE
8
0
10
24.75
20
25.25
11
11.25
21
25.25
0
LINE
8
0
10
9.25
20
23.25
11
9.25
21
10.75
0
LINE
8
0
10
11.25
20
25.75
11
24.75
21
25.75
0
LINE
8
0
10
26.75
20
27.75
11
26.75
21
40.25
0
LINE
8
0
10
24.75
20
42.25
11
11.25
21
42.25
0
LINE
8
0
10
9.25
20
40.25
11
9.25
21
27.75
0
LINE
8
0
10
11.25
20
42.75
11
24.75
21
42.75
0
LINE
8
0
10
26.75
20
44.75
11
26.75
21
57.25
0
LINE
8
0
10
24.75
20
59.25
11
11.25
21
59.25
0
LINE
8
0
10
9.25
20
57.25
11
9.25
21
44.75
0
LINE
8
0
10
29.25
20
-8.25
11
42.75
21
-8.25
0
LINE
8
0
10
44.75
20
-6.25
11
44.75
21
6.25
0
LINE
8
0
10
42.75
20
8.25
11
29.25
21
8.25
0
LINE
8
0
10
27.25
20
6.25
11
27.25
21
-6.25
0
LINE
8
0
10
29.25
20
8.75
11
42.75
21
8.75
0
LINE
8
0
10
44.75
20
10.75
11
44.75
21
23.25
0
LINE
8
0
10
42.75
20
25.25
11
29.25
21
25.25
0
LINE
8
0
10
27.25
20
23.25
11
27.25
21
10.75
0
LINE
8
0
10
29.25
20
25.75
11
42.75
21
25.75
0
LINE
8
0
10
44.75
20
27.75
11
44.75
21
40.25
0
LINE
8
0
10
42.75
20
42.25
11
29.25
21
42.25
0
LINE
8
0
10
27.25
20
40.25
11
27.25
21
27.75
0
LINE
8
0
10
29.25
20
42.75
11
42.75
21
42.75
0
LINE
8
0
10
44.75
20
44.75
11
44.75
21
57.25
0
LINE
8
0
10
42.75
20
59.25
11
29.25
21
59.25
0
LINE
8
0
10
27.25
20
57.25
11
27.25
21
44.75
0
LINE
8
0
10
47.25
20
-8.25
11
60.75
21
-8.25
0
LINE
8
0
10
62.75
20
-6.25
11
62.75
21
6.25
0
LINE
8
0
10
60.75
20
8.25
11
47.25
21
8.25
0
LINE
8
0
10
45.25
20
6.25
11
45.25
21
-6.25
0
LINE
8
0
10
47.25
20
8.75
11
60.75
21
8.75
0
LINE
8
0
10
62.75
20
10.75
11
62.75
21
23.25
0
LINE
8
0
10
60.75
20
25.25
11
47.25
21
25.25
0
LINE
8
0
10
45.25
20
23.25
11
45.25
21
10.75
0
LINE
8
0
10
47.25
20
25.75
11
60.75
21
25.75
0
LINE
8
0
10
62.75
20
27.75
11
62.75
21
40.25
0
LINE
8
0
10
60.75
20
42.25
11
47.25
21
42.25
0
LINE
8
0
10
45.25
20
40.25
11
45.25
21
27.75
0
LINE
8
0
10
47.25
20
42.75
11
60.75
21
42.75
0
LINE
8
0
10
62.75
20
44.75
11
62.75
21
57.25
0
LINE
8
0
10
60.75
20
59.25
11
47.25
21
59.25
0
LINE
8
0
10
45.25
20
57.25
11
45.25
21
44.75
0
LINE
8
0
10
65.25
20
-8.25
11
78.75
21
-8.25
0
LINE
8
0
10
80.75
20
-6.25
11
80.75
21
6.25
0
LINE
8
0
10
78.75
20
8.25
11
65.25
21
8.25
0
LINE
8
0
10
63.25
20
6.25
11
63.25
21
-6.25
0
LINE
8
0
10
65.25
20
8.75
11
78.75
21
8.75
0
LINE
8
0
10
80.75
20
10.75
11
80.75
21
23.25
0
LINE
8
0
10
78.75
20
25.25
11
65.25
21
25.25
0
LINE
8
0
10
63.25
20
23.25
11
63.25
21
10.75
0
LINE
8
0
10
65.25
20
25.75
11
78.75
21
25.75
0
LINE
8
0
10
80.75
20
27.75
11
80.75
21
40.25
0
LINE
8
0
10
78.75
20
42.25
11
65.25
21
42.25
0
LINE
8
0
10
63.25
20
40.25
11
63.25
21
27.75
0
LINE
8
0
10
65.25
20
42.75
11
78.75
21
42.75
0
LINE
8
0
10
80.75
20
44.75
11
80.75
21
57.25
0
LINE
8
0
10
78.75
20
59.25
11
65.25
21
59.25
0
LINE
8
0
10
63.25
20
57.25
11
63.25
21
44.75
0
LINE
8
0
10
83.25
20
-8.25
11
96.75
21
-8.25
0
LINE
8
0
10
98.75
20
-6.25
11
98.75
21
6.25
0
LINE
8
0
10
96.75
20
8.25
11
83.25
21
8.25
0
LINE
8
0
10
81.25
20
6.25
11
81.25
21
-6.25
0
LINE
8
0
10
83.25
20
8.75
11
96.75
21
8.75
0
LINE
8
0
10
98.75
20
10.75
11
98.75
21
23.25
0
LINE
8
0
10
96.75
20
25.25
11
83.25
21
25.25
0
LINE
8
0
10
81.25
20
23.25
11
81.25
21
10.75
0
LINE
8
0
10
83.25
20
25.75
11
96.75
21
25.75
0
LINE
8
0
10
98.75
20
27.75
11
98.75
21
40.25
0
LINE
8
0
10
96.75
20
42.25
11
83.25
21
42.25
0
LINE
8
0
10
81.25
20
40.25
11
81.25
21
27.75
0
LINE
8
0
10
83.25
20
42.75
11
96.75
21
42.75
0
LINE
8
0
10
98.75
20
44.75
11
98.75
21
57.25
0
LINE
8
0
10
96.75
20
59.25
11
83.25
21
59.25
0
LINE
8
0
10
81.25
20
57.25
11
81.25
21
44.75
0
LINE
8
0
10
101.25
20
-8.25
11
114.75
21
-8.25
0
LINE
8
0
10
116.75
20
-6.25
11
116.75
21
6.25
0
LINE
8
0
10
114.75
20
8.25
11
101.25
21
8.25
0
LINE
8
0
10
99.25
20
6.25
11
99.25
21
-6.25
0
LINE
8
0
10
101.25
20
8.75
11
114.75
21
8.75
0
LINE
8
0
10
116.75
20
10.75
11
116.75
21
23.25
0
LINE
8
0
10
114.75
20
25.25
11
101.25
21
25.25
0
LINE
8
0
10
99.25
20
23.25
11
99.25
21
10.75
0
LINE
8
0
10
101.25
20
25.75
11
114.75
21
25.75
0
LINE
8
0
10
116.75
20
27.75
11
116.75
21
40.25
0
LINE
8
0
10
114.75
20
42.25
11
101.25
21
42.25
0
LINE
8
0
10
99.25
20
40.25
11
99.25
21
27.75
0
LINE
8
0
10
101.25
20
42.75
11
114.75
21
42.75
0
LINE
8
0
10
116.75
20
44.75
11
116.75
21
57.25
0
LINE
8
0
10
114.75
20
59.25
11
101.25
21
59.25
0
LINE
8
0
10
99.25
20
57.25
11
99.25
21
44.75
0
LINE
8
0
10
82.85
20
-25.25
11
96.35
21
-25.25
0
LINE
8
0
10
98.35
20
-23.25
11
98.35
21
-10.75
0
LINE
8
0
10
96.35
20
-8.75
11
82.85
21
-8.75
0
LINE
8
0
10
80.85
20
-10.75
11
80.85
21
-23.25
0
LINE
8
0
10
100.838038
20
-25.8408614
11
113.8780366
21
-29.3349185
0
LINE
8
0
10
116.3275263
20
-27.9207048
11
119.5627643
21
-15.8466321
0
LINE
8
0
10
118.1485506
20
-13.3971424
11
105.108552
21
-9.9030853
0
LINE
8
0
10
102.6590623
20
-11.317299
11
99.4238243
21
-23.3913717
0
LINE
8
0
10
124.2884826
20
-16.4467146
11
117.5384826
21
-28.1380576
0
LINE
8
0
10
118.2705334
20
-30.8701084
11
129.095851
21
-37.1201084
0
LINE
8
0
10
131.8279018
20
-36.3880576
11
138.5779018
21
-24.6967146
0
LINE
8
0
10
137.845851
20
-21.9646638
11
127.0205334
21
-15.7146638
0
ARC
8
0
10
119.2705334
20
-29.1380576
40
2
50
149.9999999
51
239.9999999
0
ARC
8
0
10
130.095851
20
-35.3880576
40
2
50
239.9999999
51
329.9999999
0
ARC
8
0
10
136.845851
20
-23.6967146
40
2
50
329.9999999
51
59.9999999
0
ARC
8
0
10
126.0205334
20
-17.4467146
40
2
50
59.9999999
51
149.9999999
0
ARC
8
0
10
24.75
20
-6.25
40
2
50
270
51
0
0
ARC
8
0
10
24.75
20
6.25
40
2
50
0
51
90
0
ARC
8
0
10
11.25
20
6.25
40
2
50
90
51
180
0
ARC
8
0
10
11.25
20
-6.25
40
2
50
180
51
270
0
ARC
8
0
10
24.75
20
10.75
40
2
50
270
51
0
0
ARC
8
0
10
24.75
20
23.25
40
2
50
0
51
90
0
ARC
8
0
10
11.25
20
23.25
40
2
50
90
51
180
0
ARC
8
0
10
11.25
20
10.75
40
2
50
180
51
270
0
ARC
8
0
10
24.75
20
27.75
40
2
50
270
51
0
0
ARC
8
0
10
24.75
20
40.25
40
2
50
0
51
90
0
ARC
8
0
10
11.25
20
40.25
40
2
50
90
51
180
0
ARC
8
0
10
11.25
20
27.75
40
2
50
180
51
270
0
ARC
8
0
10
24.75
20
44.75
40
2
50
270
51
0
0
ARC
8
0
10
24.75
20
57.25
40
2
50
0
51
90
0
ARC
8
0
10
11.25
20
57.25
40
2
50
90
51
180
0
ARC
8
0
10
11.25
20
44.75
40
2
50
180
51
270
0
ARC
8
0
10
42.75
20
-6.25
40
2
50
270
51
0
0
ARC
8
0
10
42.75
20
6.25
40
2
50
0
51
90
0
ARC
8
0
10
29.25
20
6.25
40
2
50
90
51
180
0
ARC
8
0
10
29.25
20
-6.25
40
2
50
180
51
270
0
ARC
8
0
10
42.75
20
10.75
40
2
50
270
51
0
0
ARC
8
0
10
42.75
20
23.25
40
2
50
0
51
90
0
ARC
8
0
10
29.25
20
23.25
40
2
50
90
51
180
0
ARC
8
0
10
29.25
20
10.75
40
2
50
180
51
270
0
ARC
8
0
10
42.75
20
27.75
40
2
50
270
51
0
0
ARC
8
0
10
42.75
20
40.25
40
2
50
0
51
90
0
ARC
8
0
10
29.25
20
40.25
40
2
50
90
51
180
0
ARC
8
0
10
29.25
20
27.75
40
2
50
180
51
270
0
ARC
8
0
10
42.75
20
44.75
40
2
50
270
51
0
0
ARC
8
0
10
42.75
20
57.25
40
2
50
0
51
90
0
ARC
8
0
10
29.25
20
57.25
40
2
50
90
51
180
0
ARC
8
0
10
29.25
20
44.75
40
2
50
180
51
270
0
ARC
8
0
10
60.75
20
-6.25
40
2
50
270
51
0
0
ARC
8
0
10
60.75
20
6.25
40
2
50
0
51
90
0
ARC
8
0
10
47.25
20
6.25
40
2
50
90
51
180
0
ARC
8
0
10
47.25
20
-6.25
40
2
50
180
51
270
0
ARC
8
0
10
60.75
20
10.75
40
2
50
270
51
0
0
ARC
8
0
10
60.75
20
23.25
40
2
50
0
51
90
0
ARC
8
0
10
47.25
20
23.25
40
2
50
90
51
180
0
ARC
8
0
10
47.25
20
10.75
40
2
50
180
51
270
0
ARC
8
0
10
60.75
20
27.75
40
2
50
270
51
0
0
ARC
8
0
10
60.75
20
40.25
40
2
50
0
51
90
0
ARC
8
0
10
47.25
20
40.25
40
2
50
90
51
180
0
ARC
8
0
10
47.25
20
27.75
40
2
50
180
51
270
0
ARC
8
0
10
60.75
20
44.75
40
2
50
270
51
0
0
ARC
8
0
10
60.75
20
57.25
40
2
50
0
51
90
0
ARC
8
0
10
47.25
20
57.25
40
2
50
90
51
180
0
ARC
8
0
10
47.25
20
44.75
40
2
50
180
51
270
0
ARC
8
0
10
78.75
20
-6.25
40
2
50
270
51
0
0
ARC
8
0
10
78.75
20
6.25
40
2
50
0
51
90
0
ARC
8
0
10
65.25
20
6.25
40
2
50
90
51
180
0
ARC
8
0
10
65.25
20
-6.25
40
2
50
180
51
270
0
ARC
8
0
10
78.75
20
10.75
40
2
50
270
51
0
0
ARC
8
0
10
78.75
20
23.25
40
2
50
0
51
90
0
ARC
8
0
10
65.25
20
23.25
40
2
50
90
51
180
0
ARC
8
0
10
65.25
20
10.75
40
2
50
180
51
270
0
ARC
8
0
10
78.75
20
27.75
40
2
50
270
51
0
0
ARC
8
0
10
78.75
20
40.25
40
2
50
0
51
90
0
ARC
8
0
10
65.25
20
40.25
40
2
50
90
51
180
0
ARC
8
0
10
65.25
20
27.75
40
2
50
180
51
270
0
ARC
8
0
10
78.75
20
44.75
40
2
50
270
51
0
0
ARC
8
0
10
78.75
20
57.25
40
2
50
0
51
90
0
ARC
8
0
10
65.25
20
57.25
40
2
50
90
51
180
0
ARC
8
0
10
65.25
20
44.75
40
2
50
180
51
270
0
ARC
8
0
10
96.75
20
-6.25
40
2
50
270
51
0
0
ARC
8
0
10
96.75
20
6.25
40
2
50
0
51
90
0
ARC
8
0
10
83.25
20
6.25
40
2
50
90
51
180
0
ARC
8
0
10
83.25
20
-6.25
40
2
50
180
51
270
0
ARC
8
0
10
96.75
20
10.75
40
2
50
270
51
0
0
ARC
8
0
10
96.75
20
23.25
40
2
50
0
51
90
0
ARC
8
0
10
83.25
20
23.25
40
2
50
90
51
180
0
ARC
8
0
10
83.25
20
10.75
40
2
50
180
51
270
0
ARC
8
0
10
96.75
20
27.75
40
2
50
270
51
0
0
ARC
8
0
10
96.75
20
40.25
40
2
50
0
51
90
0
ARC
8
0
10
83.25
20
40.25
40
2
50
90
51
180
0
ARC
8
0
10
83.25
20
27.75
40
2
50
180
51
270
0
ARC
8
0
10
96.75
20
44.75
40
2
50
270
51
0
0
ARC
8
0
10
96.75
20
57.25
40
2
50
0
51
90
0
ARC
8
0
10
83.25
20
57.25
40
2
50
90
51
180
0
ARC
8
0
10
83.25
20
44.75
40
2
50
180
51
270
0
ARC
8
0
10
114.75
20
-6.25
40
2
50
270
51
0
0
ARC
8
0
10
114.75
20
6.25
40
2
50
0
51
90
0
ARC
8
0
10
101.25
20
6.25
40
2
50
90
51
180
0
ARC
8
0
10
101.25
20
-6.25
40
2
50
180
51
270
0
ARC
8
0
10
114.75
20
10.75
40
2
50
270
51
0
0
ARC
8
0
10
114.75
20
23.25
40
2
50
0
51
90
0
ARC
8
0
10
101.25
20
23.25
40
2
50
90
51
180
0
ARC
8
0
10
101.25
20
10.75
40
2
50
180
51
270
0
ARC
8
0
10
114.75
20
27.75
40
2
50
270
51
0
0
ARC
8
0
10
114.75
20
40.25
40
2
50
0
51
90
0
ARC
8
0
10
101.25
20
40.25
40
2
50
90
51
180
0
ARC
8
0
10
101.25
20
27.75
40
2
50
180
51
270
0
ARC
8
0
10
114.75
20
44.75
40
2
50
270
51
0
0
ARC
8
0
10
114.75
20
57.25
40
2
50
0
51
90
0
ARC
8
0
10
101.25
20
57.25
40
2
50
90
51
180
0
ARC
8
0
10
101.25
20
44.75
40
2
50
180
51
270
0
ARC
8
0
10
96.35
20
-23.25
40
2
50
270
51
0
0
ARC
8
0
10
96.35
20
-10.75
40
2
50
0
51
90
0
ARC
8
0
10
82.85
20
-10.75
40
2
50
90
51
180
0
ARC
8
0
10
82.85
20
-23.25
40
2
50
180
51
270
0
ARC
8
0
10
114.3956746
20
-27.4030668
40
2
50
255.0000021
51
345.0000021
0
ARC
8
0
10
117.6309126
20
-15.3289941
40
2
50
345.0000021
51
75.0000021
0
ARC
8
0
10
104.590914
20
-11.834937
40
2
50
75.0000021
51
165.0000021
0
ARC
8
0
10
101.355676
20
-23.9090097
40
2
50
165.0000021
51
255.0000021
0
LINE
8
0
10
118
20
25.75
11
135.78
21
25.75
0
LINE
8
0
10
135.78
20
25.75
11
135.78
21
59
0
LINE
8
0
10
135.78
20
59
11
132.27
21
59
0
LINE
8
0
10
121.51
20
59
11
118
21
59
0
LINE
8
0
10
118
20
59
11
118
21
25.75
0
LINE
8
0
10
132.27
20
59
11
132.27
21
60
0
LINE
8
0
10
121.51
20
60
11
121.51
21
59
0
LINE
8
0
10
130.35
20
16.075
11
133.87
21
16.075
0
LINE
8
0
10
133.87
20
16.075
11
133.87
21
22.075
0
LINE
8
0
10
133.87
20
22.075
11
130.35
21
22.075
0
LINE
8
0
10
130.35
20
22.075
11
130.35
21
16.075
0
LINE
8
0
10
120.6
20
13.9
11
128.15
21
13.9
0
LINE
8
0
10
128.15
20
13.9
11
128.15
21
24.25
0
LINE
8
0
10
128.15
20
24.25
11
120.6
21
24.25
0
LINE
8
0
10
120.6
20
24.25
11
120.6
21
13.9
0
ENDSEC
0
EOF