0
SECTION
2
HEADER
9
$INSUNITS
70
4
0
ENDSEC
0
SECTION
2
TABLES
0
TABLE
2
LTYPE
0
LTYPE
72
65
70
64
2
CONTINUOUS
3
______
73
0
40
0
0
ENDTAB
0
TABLE
2
LAYER
0
ENDTAB
0
ENDSEC
0
SECTION
2
ENTITIES
0
LINE
8
0
10
10
20
-9
11
73.0196754
21
-9
0
LINE
8
0
10
8
20
-7
11
8
21
58
0
LINE
8
0
10
10
20
60
11
134.7
21
60
0
LINE
8
0
10
117.5
20
0.1269928
11
117.5
21
6.5
0
LINE
8
0
10
81.6
20
-26
11
98.2708685
21
-26
0
LINE
8
0
10
79.6
20
-24
11
79.6
21
-15.8065135
0
LINE
8
0
10
98.7885065
20
-26.0681483
11
108.2572677
21
-28.6052952
0
LINE
8
0
10
131.8524208
20
-37.8455893
11
139.6024208
21
-24.4221956
0
LINE
8
0
10
116.6537369
20
-31.3800261
11
129.12037
21
-38.5776401
0
LINE
8
0
10
131.9337942
20
-17.6853109
11
138.87037
21
-21.6901448
0
LINE
8
0
10
74.4675461
20
-9.6202644
11
79.0478707
21
-14.4267779
0
LINE
8
0
10
108.3514059
20
-28.6330119
11
115.7578688
21
-31.0126213
0
LINE
8
0
10
115.7578688
20
-31.0126213
11
116.6537369
21
-31.3800261
0
LINE
8
0
10
131.3989293
20
-17.2355197
11
117.9651351
21
-1.1552669
0
LINE
8
0
10
136.7
20
10.5
11
136.7
21
58
0
LINE
8
0
10
119.5
20
8.5
11
134.7
21
8.5
0
ARC
8
0
10
73.0196754
20
-11
40
2
50
43.6196438
51
90
0
ARC
8
0
10
77.6
20
-15.8065135
40
2
50
0
51
43.6196438
0
ARC
8
0
10
81.6
20
-24
40
2
50
180
51
270
0
ARC
8
0
10
98.2708685
20
-28
40
2
50
75.0000021
51
90
0
ARC
8
0
10
107.7396297
20
-30.5371469
40
2
50
72.1883984
51
75.0000021
0
ARC
8
0
10
130.12037
20
-36.8455893
40
2
50
239.9999999
51
329.9999999
0
ARC
8
0
10
137.87037
20
-23.4221956
40
2
50
329.9999999
51
59.9999999
0
ARC
8
0
10
132.9337942
20
-15.9532601
40
2
50
219.8761197
51
239.9999999
0
ARC
8
0
10
119.5
20
0.1269928
40
2
50
180
51
219.8761197
0
ARC
8
0
10
119.5
20
6.5
40
2
50
90
51
180
0
ARC
8
0
10
134.7
20
10.5
40
2
50
270
51
0
0
ARC
8
0
10
134.7
20
58
40
2
50
0
51
90
0
ARC
8
0
10
10
20
58
40
2
50
90
51
180
0
ARC
8
0
10
10
20
-7
40
2
50
180
51
270
0
ENDSEC
0
EOF