<svg width="306.753mm" height="111.283mm" viewBox="0 0 306.753 111.283" xmlns="http://www.w3.org/2000/svg"><g id="svgGroup" stroke-linecap="round" fill-rule="evenodd" font-size="9pt" stroke="#000" stroke-width="0.25mm" fill="none" style="stroke:#000;stroke-width:0.25mm;fill:none"><path d="M 0 57 L 18 57 L 18 75 L 0 75 L 0 57 Z M 0 38 L 18 38 L 18 56 L 0 56 L 0 38 Z M 0 19 L 18 19 L 18 37 L 0 37 L 0 19 Z M 0 0 L 18 0 L 18 18 L 0 18 L 0 0 Z M 19 57 L 37 57 L 37 75 L 19 75 L 19 57 Z M 19 38 L 37 38 L 37 56 L 19 56 L 19 38 Z M 19 19 L 37 19 L 37 37 L 19 37 L 19 19 Z M 19 0 L 37 0 L 37 18 L 19 18 L 19 0 Z M 38 57 L 56 57 L 56 75 L 38 75 L 38 57 Z M 38 38 L 56 38 L 56 56 L 38 56 L 38 38 Z M 38 19 L 56 19 L 56 37 L 38 37 L 38 19 Z M 38 0 L 56 0 L 56 18 L 38 18 L 38 0 Z M 57 57 L 75 57 L 75 75 L 57 75 L 57 57 Z M 57 38 L 75 38 L 75 56 L 57 56 L 57 38 Z M 57 19 L 75 19 L 75 37 L 57 37 L 57 19 Z M 57 0 L 75 0 L 75 18 L 57 18 L 57 0 Z M 76 57 L 94 57 L 94 75 L 76 75 L 76 57 Z M 76 38 L 94 38 L 94 56 L 76 56 L 76 38 Z M 76 19 L 94 19 L 94 37 L 76 37 L 76 19 Z M 76 0 L 94 0 L 94 18 L 76 18 L 76 0 Z M 95 57 L 113 57 L 113 75 L 95 75 L 95 57 Z M 95 38 L 113 38 L 113 56 L 95 56 L 95 38 Z M 95 19 L 113 19 L 113 37 L 95 37 L 95 19 Z M 95 0 L 113 0 L 113 18 L 95 18 L 95 0 Z M 73 76 L 91 76 L 91 94 L 73 94 L 73 76 Z M 288.753 57 L 306.753 57 L 306.753 75 L 288.753 75 L 288.753 57 Z M 288.753 38 L 306.753 38 L 306.753 56 L 288.753 56 L 288.753 38 Z M 288.753 19 L 306.753 19 L 306.753 37 L 288.753 37 L 288.753 19 Z M 288.753 0 L 306.753 0 L 306.753 18 L 288.753 18 L 288.753 0 Z M 269.753 57 L 287.753 57 L 287.753 75 L 269.753 75 L 269.753 57 Z M 269.753 38 L 287.753 38 L 287.753 56 L 269.753 56 L 269.753 38 Z M 269.753 19 L 287.753 19 L 287.753 37 L 269.753 37 L 269.753 19 Z M 269.753 0 L 287.753 0 L 287.753 18 L 269.753 18 L 269.753 0 Z M 250.753 57 L 268.753 57 L 268.753 75 L 250.753 75 L 250.753 57 Z M 250.753 38 L 268.753 38 L 268.753 56 L 250.753 56 L 250.753 38 Z M 250.753 19 L 268.753 19 L 268.753 37 L 250.753 37 L 250.753 19 Z M 250.753 0 L 268.753 0 L 268.753 18 L 250.753 18 L 250.753 0 Z M 231.753 57 L 249.753 57 L 249.753 75 L 231.753 75 L 231.753 57 Z M 231.753 38 L 249.753 38 L 249.753 56 L 231.753 56 L 231.753 38 Z M 231.753 19 L 249.753 19 L 249.753 37 L 231.753 37 L 231.753 19 Z M 231.753 0 L 249.753 0 L 249.753 18 L 231.753 18 L 231.753 0 Z M 212.753 57 L 230.753 57 L 230.753 75 L 212.753 75 L 212.753 57 Z M 212.753 38 L 230.753 38 L 230.753 56 L 212.753 56 L 212.753 38 Z M 212.753 19 L 230.753 19 L 230.753 37 L 212.753 37 L 212.753 19 Z M 212.753 0 L 230.753 0 L 230.753 18 L 212.753 18 L 212.753 0 Z M 193.753 57 L 211.753 57 L 211.753 75 L 193.753 75 L 193.753 57 Z M 193.753 38 L 211.753 38 L 211.753 56 L 193.753 56 L 193.753 38 Z M 193.753 19 L 211.753 19 L 211.753 37 L 193.753 37 L 193.753 19 Z M 193.753 0 L 211.753 0 L 211.753 18 L 193.753 18 L 193.753 0 Z M 215.753 76 L 233.753 76 L 233.753 94 L 215.753 94 L 215.753 76 Z M 137.64 88.333 L 128.64 103.922 L 113.051 94.922 L 122.051 79.333 L 137.64 88.333 Z M 133.39 95.694 L 124.39 111.283 L 108.801 102.283 L 117.801 86.694 L 133.39 95.694 Z M 182.363 111.283 L 173.363 95.694 L 188.952 86.694 L 197.952 102.283 L 182.363 111.283 Z M 135.515 92.014 L 126.515 107.602 L 110.926 98.602 L 119.926 83.014 L 135.515 92.014 Z M 180.238 107.602 L 171.238 92.014 L 186.827 83.014 L 195.827 98.602 L 180.238 107.602 Z M 178.113 103.922 L 169.113 88.333 L 184.702 79.333 L 193.702 94.922 L 178.113 103.922 Z M 96.517 76.687 L 113.904 81.346 L 109.245 98.732 L 91.859 94.074 L 96.517 76.687 Z M 192.849 81.346 L 210.236 76.687 L 214.894 94.074 L 197.508 98.732 L 192.849 81.346 Z" vector-effect="non-scaling-stroke"/></g></svg>