<svg width="306.753mm" height="105.283mm" viewBox="0 0 306.753 105.283" xmlns="http://www.w3.org/2000/svg"><g id="svgGroup" stroke-linecap="round" fill-rule="evenodd" font-size="9pt" stroke="#000" stroke-width="0.25mm" fill="none" style="stroke:#000;stroke-width:0.25mm;fill:none"><path d="M 0 51 L 18 51 L 18 69 L 0 69 L 0 51 Z M 0 34 L 18 34 L 18 52 L 0 52 L 0 34 Z M 0 17 L 18 17 L 18 35 L 0 35 L 0 17 Z M 0 0 L 18 0 L 18 18 L 0 18 L 0 0 Z M 19 51 L 37 51 L 37 69 L 19 69 L 19 51 Z M 19 34 L 37 34 L 37 52 L 19 52 L 19 34 Z M 19 17 L 37 17 L 37 35 L 19 35 L 19 17 Z M 19 0 L 37 0 L 37 18 L 19 18 L 19 0 Z M 38 51 L 56 51 L 56 69 L 38 69 L 38 51 Z M 38 34 L 56 34 L 56 52 L 38 52 L 38 34 Z M 38 17 L 56 17 L 56 35 L 38 35 L 38 17 Z M 38 0 L 56 0 L 56 18 L 38 18 L 38 0 Z M 57 51 L 75 51 L 75 69 L 57 69 L 57 51 Z M 57 34 L 75 34 L 75 52 L 57 52 L 57 34 Z M 57 17 L 75 17 L 75 35 L 57 35 L 57 17 Z M 57 0 L 75 0 L 75 18 L 57 18 L 57 0 Z M 76 51 L 94 51 L 94 69 L 76 69 L 76 51 Z M 76 34 L 94 34 L 94 52 L 76 52 L 76 34 Z M 76 17 L 94 17 L 94 35 L 76 35 L 76 17 Z M 76 0 L 94 0 L 94 18 L 76 18 L 76 0 Z M 95 51 L 113 51 L 113 69 L 95 69 L 95 51 Z M 95 34 L 113 34 L 113 52 L 95 52 L 95 34 Z M 95 17 L 113 17 L 113 35 L 95 35 L 95 17 Z M 95 0 L 113 0 L 113 18 L 95 18 L 95 0 Z M 73 70 L 91 70 L 91 88 L 73 88 L 73 70 Z M 288.753 51 L 306.753 51 L 306.753 69 L 288.753 69 L 288.753 51 Z M 288.753 34 L 306.753 34 L 306.753 52 L 288.753 52 L 288.753 34 Z M 288.753 17 L 306.753 17 L 306.753 35 L 288.753 35 L 288.753 17 Z M 288.753 0 L 306.753 0 L 306.753 18 L 288.753 18 L 288.753 0 Z M 269.753 51 L 287.753 51 L 287.753 69 L 269.753 69 L 269.753 51 Z M 269.753 34 L 287.753 34 L 287.753 52 L 269.753 52 L 269.753 34 Z M 269.753 17 L 287.753 17 L 287.753 35 L 269.753 35 L 269.753 17 Z M 269.753 0 L 287.753 0 L 287.753 18 L 269.753 18 L 269.753 0 Z M 250.753 51 L 268.753 51 L 268.753 69 L 250.753 69 L 250.753 51 Z M 250.753 34 L 268.753 34 L 268.753 52 L 250.753 52 L 250.753 34 Z M 250.753 17 L 268.753 17 L 268.753 35 L 250.753 35 L 250.753 17 Z M 250.753 0 L 268.753 0 L 268.753 18 L 250.753 18 L 250.753 0 Z M 231.753 51 L 249.753 51 L 249.753 69 L 231.753 69 L 231.753 51 Z M 231.753 34 L 249.753 34 L 249.753 52 L 231.753 52 L 231.753 34 Z M 231.753 17 L 249.753 17 L 249.753 35 L 231.753 35 L 231.753 17 Z M 231.753 0 L 249.753 0 L 249.753 18 L 231.753 18 L 231.753 0 Z M 212.753 51 L 230.753 51 L 230.753 69 L 212.753 69 L 212.753 51 Z M 212.753 34 L 230.753 34 L 230.753 52 L 212.753 52 L 212.753 34 Z M 212.753 17 L 230.753 17 L 230.753 35 L 212.753 35 L 212.753 17 Z M 212.753 0 L 230.753 0 L 230.753 18 L 212.753 18 L 212.753 0 Z M 193.753 51 L 211.753 51 L 211.753 69 L 193.753 69 L 193.753 51 Z M 193.753 34 L 211.753 34 L 211.753 52 L 193.753 52 L 193.753 34 Z M 193.753 17 L 211.753 17 L 211.753 35 L 193.753 35 L 193.753 17 Z M 193.753 0 L 211.753 0 L 211.753 18 L 193.753 18 L 193.753 0 Z M 215.753 70 L 233.753 70 L 233.753 88 L 215.753 88 L 215.753 70 Z M 137.64 82.333 L 128.64 97.922 L 113.051 88.922 L 122.051 73.333 L 137.64 82.333 Z M 133.39 89.694 L 124.39 105.283 L 108.801 96.283 L 117.801 80.694 L 133.39 89.694 Z M 182.363 105.283 L 173.363 89.694 L 188.952 80.694 L 197.952 96.283 L 182.363 105.283 Z M 135.515 86.014 L 126.515 101.602 L 110.926 92.602 L 119.926 77.014 L 135.515 86.014 Z M 180.238 101.602 L 171.238 86.014 L 186.827 77.014 L 195.827 92.602 L 180.238 101.602 Z M 178.113 97.922 L 169.113 82.333 L 184.702 73.333 L 193.702 88.922 L 178.113 97.922 Z M 96.517 70.687 L 113.904 75.346 L 109.245 92.732 L 91.859 88.074 L 96.517 70.687 Z M 192.849 75.346 L 210.236 70.687 L 214.894 88.074 L 197.508 92.732 L 192.849 75.346 Z" vector-effect="non-scaling-stroke"/></g></svg>