0
SECTION
2
HEADER
9
$INSUNITS
70
4
0
ENDSEC
0
SECTION
2
TABLES
0
TABLE
2
LTYPE
0
LTYPE
72
65
70
64
2
CONTINUOUS
3
______
73
0
40
0
0
ENDTAB
0
TABLE
2
LAYER
0
ENDTAB
0
ENDSEC
0
SECTION
2
ENTITIES
0
LINE
8
0
10
-9
20
9
11
9
21
9
0
LINE
8
0
10
9
20
9
11
9
21
-9
0
LINE
8
0
10
9
20
-9
11
-9
21
-9
0
LINE
8
0
10
-9
20
-9
11
-9
21
9
0
LINE
8
0
10
-9
20
26
11
9
21
26
0
LINE
8
0
10
9
20
26
11
9
21
8
0
LINE
8
0
10
9
20
8
11
-9
21
8
0
LINE
8
0
10
-9
20
8
11
-9
21
26
0
LINE
8
0
10
-9
20
43
11
9
21
43
0
LINE
8
0
10
9
20
43
11
9
21
25
0
LINE
8
0
10
9
20
25
11
-9
21
25
0
LINE
8
0
10
-9
20
25
11
-9
21
43
0
LINE
8
0
10
-9
20
60
11
9
21
60
0
LINE
8
0
10
9
20
60
11
9
21
42
0
LINE
8
0
10
9
20
42
11
-9
21
42
0
LINE
8
0
10
-9
20
42
11
-9
21
60
0
LINE
8
0
10
10
20
9
11
28
21
9
0
LINE
8
0
10
28
20
9
11
28
21
-9
0
LINE
8
0
10
28
20
-9
11
10
21
-9
0
LINE
8
0
10
10
20
-9
11
10
21
9
0
LINE
8
0
10
10
20
26
11
28
21
26
0
LINE
8
0
10
28
20
26
11
28
21
8
0
LINE
8
0
10
28
20
8
11
10
21
8
0
LINE
8
0
10
10
20
8
11
10
21
26
0
LINE
8
0
10
10
20
43
11
28
21
43
0
LINE
8
0
10
28
20
43
11
28
21
25
0
LINE
8
0
10
28
20
25
11
10
21
25
0
LINE
8
0
10
10
20
25
11
10
21
43
0
LINE
8
0
10
10
20
60
11
28
21
60
0
LINE
8
0
10
28
20
60
11
28
21
42
0
LINE
8
0
10
28
20
42
11
10
21
42
0
LINE
8
0
10
10
20
42
11
10
21
60
0
LINE
8
0
10
29
20
9
11
47
21
9
0
LINE
8
0
10
47
20
9
11
47
21
-9
0
LINE
8
0
10
47
20
-9
11
29
21
-9
0
LINE
8
0
10
29
20
-9
11
29
21
9
0
LINE
8
0
10
29
20
26
11
47
21
26
0
LINE
8
0
10
47
20
26
11
47
21
8
0
LINE
8
0
10
47
20
8
11
29
21
8
0
LINE
8
0
10
29
20
8
11
29
21
26
0
LINE
8
0
10
29
20
43
11
47
21
43
0
LINE
8
0
10
47
20
43
11
47
21
25
0
LINE
8
0
10
47
20
25
11
29
21
25
0
LINE
8
0
10
29
20
25
11
29
21
43
0
LINE
8
0
10
29
20
60
11
47
21
60
0
LINE
8
0
10
47
20
60
11
47
21
42
0
LINE
8
0
10
47
20
42
11
29
21
42
0
LINE
8
0
10
29
20
42
11
29
21
60
0
LINE
8
0
10
48
20
9
11
66
21
9
0
LINE
8
0
10
66
20
9
11
66
21
-9
0
LINE
8
0
10
66
20
-9
11
48
21
-9
0
LINE
8
0
10
48
20
-9
11
48
21
9
0
LINE
8
0
10
48
20
26
11
66
21
26
0
LINE
8
0
10
66
20
26
11
66
21
8
0
LINE
8
0
10
66
20
8
11
48
21
8
0
LINE
8
0
10
48
20
8
11
48
21
26
0
LINE
8
0
10
48
20
43
11
66
21
43
0
LINE
8
0
10
66
20
43
11
66
21
25
0
LINE
8
0
10
66
20
25
11
48
21
25
0
LINE
8
0
10
48
20
25
11
48
21
43
0
LINE
8
0
10
48
20
60
11
66
21
60
0
LINE
8
0
10
66
20
60
11
66
21
42
0
LINE
8
0
10
66
20
42
11
48
21
42
0
LINE
8
0
10
48
20
42
11
48
21
60
0
LINE
8
0
10
67
20
9
11
85
21
9
0
LINE
8
0
10
85
20
9
11
85
21
-9
0
LINE
8
0
10
85
20
-9
11
67
21
-9
0
LINE
8
0
10
67
20
-9
11
67
21
9
0
LINE
8
0
10
67
20
26
11
85
21
26
0
LINE
8
0
10
85
20
26
11
85
21
8
0
LINE
8
0
10
85
20
8
11
67
21
8
0
LINE
8
0
10
67
20
8
11
67
21
26
0
LINE
8
0
10
67
20
43
11
85
21
43
0
LINE
8
0
10
85
20
43
11
85
21
25
0
LINE
8
0
10
85
20
25
11
67
21
25
0
LINE
8
0
10
67
20
25
11
67
21
43
0
LINE
8
0
10
67
20
60
11
85
21
60
0
LINE
8
0
10
85
20
60
11
85
21
42
0
LINE
8
0
10
85
20
42
11
67
21
42
0
LINE
8
0
10
67
20
42
11
67
21
60
0
LINE
8
0
10
86
20
9
11
104
21
9
0
LINE
8
0
10
104
20
9
11
104
21
-9
0
LINE
8
0
10
104
20
-9
11
86
21
-9
0
LINE
8
0
10
86
20
-9
11
86
21
9
0
LINE
8
0
10
86
20
26
11
104
21
26
0
LINE
8
0
10
104
20
26
11
104
21
8
0
LINE
8
0
10
104
20
8
11
86
21
8
0
LINE
8
0
10
86
20
8
11
86
21
26
0
LINE
8
0
10
86
20
43
11
104
21
43
0
LINE
8
0
10
104
20
43
11
104
21
25
0
LINE
8
0
10
104
20
25
11
86
21
25
0
LINE
8
0
10
86
20
25
11
86
21
43
0
LINE
8
0
10
86
20
60
11
104
21
60
0
LINE
8
0
10
104
20
60
11
104
21
42
0
LINE
8
0
10
104
20
42
11
86
21
42
0
LINE
8
0
10
86
20
42
11
86
21
60
0
LINE
8
0
10
64
20
-10
11
82
21
-10
0
LINE
8
0
10
82
20
-10
11
82
21
-28
0
LINE
8
0
10
82
20
-28
11
64
21
-28
0
LINE
8
0
10
64
20
-28
11
64
21
-10
0
LINE
8
0
10
87.5174074
20
-10.6868847
11
104.9040722
21
-15.3456275
0
LINE
8
0
10
104.9040722
20
-15.3456275
11
100.2453294
21
-32.7322923
0
LINE
8
0
10
100.2453294
20
-32.7322923
11
82.8586646
21
-28.0735495
0
LINE
8
0
10
82.8586646
20
-28.0735495
11
87.5174074
21
-10.6868847
0
LINE
8
0
10
126.5145108
20
-26.0137353
11
117.5145108
21
-41.6021925
0
LINE
8
0
10
117.5145108
20
-41.6021925
11
101.9260536
21
-32.6021925
0
LINE
8
0
10
101.9260536
20
-32.6021925
11
110.9260536
21
-17.0137353
0
LINE
8
0
10
110.9260536
20
-17.0137353
11
126.5145108
21
-26.0137353
0
LINE
8
0
10
128.6395108
20
-22.3331273
11
119.6395108
21
-37.9215845
0
LINE
8
0
10
119.6395108
20
-37.9215845
11
104.0510536
21
-28.9215845
0
LINE
8
0
10
104.0510536
20
-28.9215845
11
113.0510536
21
-13.3331273
0
LINE
8
0
10
113.0510536
20
-13.3331273
11
128.6395108
21
-22.3331273
0
LINE
8
0
10
124.3895108
20
-29.6943433
11
115.3895108
21
-45.2828005
0
LINE
8
0
10
115.3895108
20
-45.2828005
11
99.8010536
21
-36.2828005
0
LINE
8
0
10
99.8010536
20
-36.2828005
11
108.8010536
21
-20.6943433
0
LINE
8
0
10
108.8010536
20
-20.6943433
11
124.3895108
21
-29.6943433
0
LINE
8
0
10
279.7529778
20
9
11
297.7529778
21
9
0
LINE
8
0
10
297.7529778
20
9
11
297.7529778
21
-9
0
LINE
8
0
10
297.7529778
20
-9
11
279.7529778
21
-9
0
LINE
8
0
10
279.7529778
20
-9
11
279.7529778
21
9
0
LINE
8
0
10
279.7529778
20
26
11
297.7529778
21
26
0
LINE
8
0
10
297.7529778
20
26
11
297.7529778
21
8
0
LINE
8
0
10
297.7529778
20
8
11
279.7529778
21
8
0
LINE
8
0
10
279.7529778
20
8
11
279.7529778
21
26
0
LINE
8
0
10
279.7529778
20
43
11
297.7529778
21
43
0
LINE
8
0
10
297.7529778
20
43
11
297.7529778
21
25
0
LINE
8
0
10
297.7529778
20
25
11
279.7529778
21
25
0
LINE
8
0
10
279.7529778
20
25
11
279.7529778
21
43
0
LINE
8
0
10
279.7529778
20
60
11
297.7529778
21
60
0
LINE
8
0
10
297.7529778
20
60
11
297.7529778
21
42
0
LINE
8
0
10
297.7529778
20
42
11
279.7529778
21
42
0
LINE
8
0
10
279.7529778
20
42
11
279.7529778
21
60
0
LINE
8
0
10
260.7529778
20
9
11
278.7529778
21
9
0
LINE
8
0
10
278.7529778
20
9
11
278.7529778
21
-9
0
LINE
8
0
10
278.7529778
20
-9
11
260.7529778
21
-9
0
LINE
8
0
10
260.7529778
20
-9
11
260.7529778
21
9
0
LINE
8
0
10
260.7529778
20
26
11
278.7529778
21
26
0
LINE
8
0
10
278.7529778
20
26
11
278.7529778
21
8
0
LINE
8
0
10
278.7529778
20
8
11
260.7529778
21
8
0
LINE
8
0
10
260.7529778
20
8
11
260.7529778
21
26
0
LINE
8
0
10
260.7529778
20
43
11
278.7529778
21
43
0
LINE
8
0
10
278.7529778
20
43
11
278.7529778
21
25
0
LINE
8
0
10
278.7529778
20
25
11
260.7529778
21
25
0
LINE
8
0
10
260.7529778
20
25
11
260.7529778
21
43
0
LINE
8
0
10
260.7529778
20
60
11
278.7529778
21
60
0
LINE
8
0
10
278.7529778
20
60
11
278.7529778
21
42
0
LINE
8
0
10
278.7529778
20
42
11
260.7529778
21
42
0
LINE
8
0
10
260.7529778
20
42
11
260.7529778
21
60
0
LINE
8
0
10
241.7529778
20
9
11
259.7529778
21
9
0
LINE
8
0
10
259.7529778
20
9
11
259.7529778
21
-9
0
LINE
8
0
10
259.7529778
20
-9
11
241.7529778
21
-9
0
LINE
8
0
10
241.7529778
20
-9
11
241.7529778
21
9
0
LINE
8
0
10
241.7529778
20
26
11
259.7529778
21
26
0
LINE
8
0
10
259.7529778
20
26
11
259.7529778
21
8
0
LINE
8
0
10
259.7529778
20
8
11
241.7529778
21
8
0
LINE
8
0
10
241.7529778
20
8
11
241.7529778
21
26
0
LINE
8
0
10
241.7529778
20
43
11
259.7529778
21
43
0
LINE
8
0
10
259.7529778
20
43
11
259.7529778
21
25
0
LINE
8
0
10
259.7529778
20
25
11
241.7529778
21
25
0
LINE
8
0
10
241.7529778
20
25
11
241.7529778
21
43
0
LINE
8
0
10
241.7529778
20
60
11
259.7529778
21
60
0
LINE
8
0
10
259.7529778
20
60
11
259.7529778
21
42
0
LINE
8
0
10
259.7529778
20
42
11
241.7529778
21
42
0
LINE
8
0
10
241.7529778
20
42
11
241.7529778
21
60
0
LINE
8
0
10
222.7529778
20
9
11
240.7529778
21
9
0
LINE
8
0
10
240.7529778
20
9
11
240.7529778
21
-9
0
LINE
8
0
10
240.7529778
20
-9
11
222.7529778
21
-9
0
LINE
8
0
10
222.7529778
20
-9
11
222.7529778
21
9
0
LINE
8
0
10
222.7529778
20
26
11
240.7529778
21
26
0
LINE
8
0
10
240.7529778
20
26
11
240.7529778
21
8
0
LINE
8
0
10
240.7529778
20
8
11
222.7529778
21
8
0
LINE
8
0
10
222.7529778
20
8
11
222.7529778
21
26
0
LINE
8
0
10
222.7529778
20
43
11
240.7529778
21
43
0
LINE
8
0
10
240.7529778
20
43
11
240.7529778
21
25
0
LINE
8
0
10
240.7529778
20
25
11
222.7529778
21
25
0
LINE
8
0
10
222.7529778
20
25
11
222.7529778
21
43
0
LINE
8
0
10
222.7529778
20
60
11
240.7529778
21
60
0
LINE
8
0
10
240.7529778
20
60
11
240.7529778
21
42
0
LINE
8
0
10
240.7529778
20
42
11
222.7529778
21
42
0
LINE
8
0
10
222.7529778
20
42
11
222.7529778
21
60
0
LINE
8
0
10
203.7529778
20
9
11
221.7529778
21
9
0
LINE
8
0
10
221.7529778
20
9
11
221.7529778
21
-9
0
LINE
8
0
10
221.7529778
20
-9
11
203.7529778
21
-9
0
LINE
8
0
10
203.7529778
20
-9
11
203.7529778
21
9
0
LINE
8
0
10
203.7529778
20
26
11
221.7529778
21
26
0
LINE
8
0
10
221.7529778
20
26
11
221.7529778
21
8
0
LINE
8
0
10
221.7529778
20
8
11
203.7529778
21
8
0
LINE
8
0
10
203.7529778
20
8
11
203.7529778
21
26
0
LINE
8
0
10
203.7529778
20
43
11
221.7529778
21
43
0
LINE
8
0
10
221.7529778
20
43
11
221.7529778
21
25
0
LINE
8
0
10
221.7529778
20
25
11
203.7529778
21
25
0
LINE
8
0
10
203.7529778
20
25
11
203.7529778
21
43
0
LINE
8
0
10
203.7529778
20
60
11
221.7529778
21
60
0
LINE
8
0
10
221.7529778
20
60
11
221.7529778
21
42
0
LINE
8
0
10
221.7529778
20
42
11
203.7529778
21
42
0
LINE
8
0
10
203.7529778
20
42
11
203.7529778
21
60
0
LINE
8
0
10
184.7529778
20
9
11
202.7529778
21
9
0
LINE
8
0
10
202.7529778
20
9
11
202.7529778
21
-9
0
LINE
8
0
10
202.7529778
20
-9
11
184.7529778
21
-9
0
LINE
8
0
10
184.7529778
20
-9
11
184.7529778
21
9
0
LINE
8
0
10
184.7529778
20
26
11
202.7529778
21
26
0
LINE
8
0
10
202.7529778
20
26
11
202.7529778
21
8
0
LINE
8
0
10
202.7529778
20
8
11
184.7529778
21
8
0
LINE
8
0
10
184.7529778
20
8
11
184.7529778
21
26
0
LINE
8
0
10
184.7529778
20
43
11
202.7529778
21
43
0
LINE
8
0
10
202.7529778
20
43
11
202.7529778
21
25
0
LINE
8
0
10
202.7529778
20
25
11
184.7529778
21
25
0
LINE
8
0
10
184.7529778
20
25
11
184.7529778
21
43
0
LINE
8
0
10
184.7529778
20
60
11
202.7529778
21
60
0
LINE
8
0
10
202.7529778
20
60
11
202.7529778
21
42
0
LINE
8
0
10
202.7529778
20
42
11
184.7529778
21
42
0
LINE
8
0
10
184.7529778
20
42
11
184.7529778
21
60
0
LINE
8
0
10
206.7529778
20
-10
11
224.7529778
21
-10
0
LINE
8
0
10
224.7529778
20
-10
11
224.7529778
21
-28
0
LINE
8
0
10
224.7529778
20
-28
11
206.7529778
21
-28
0
LINE
8
0
10
206.7529778
20
-28
11
206.7529778
21
-10
0
LINE
8
0
10
183.8489056
20
-15.3456275
11
201.2355704
21
-10.6868847
0
LINE
8
0
10
201.2355704
20
-10.6868847
11
205.8943132
21
-28.0735495
0
LINE
8
0
10
205.8943132
20
-28.0735495
11
188.5076484
21
-32.7322923
0
LINE
8
0
10
188.5076484
20
-32.7322923
11
183.8489056
21
-15.3456275
0
LINE
8
0
10
171.238467
20
-41.6021925
11
162.238467
21
-26.0137353
0
LINE
8
0
10
162.238467
20
-26.0137353
11
177.8269242
21
-17.0137353
0
LINE
8
0
10
177.8269242
20
-17.0137353
11
186.8269242
21
-32.6021925
0
LINE
8
0
10
186.8269242
20
-32.6021925
11
171.238467
21
-41.6021925
0
LINE
8
0
10
169.113467
20
-37.9215845
11
160.113467
21
-22.3331273
0
LINE
8
0
10
160.113467
20
-22.3331273
11
175.7019242
21
-13.3331273
0
LINE
8
0
10
175.7019242
20
-13.3331273
11
184.7019242
21
-28.9215845
0
LINE
8
0
10
184.7019242
20
-28.9215845
11
169.113467
21
-37.9215845
0
LINE
8
0
10
173.363467
20
-45.2828005
11
164.363467
21
-29.6943433
0
LINE
8
0
10
164.363467
20
-29.6943433
11
179.9519242
21
-20.6943433
0
LINE
8
0
10
179.9519242
20
-20.6943433
11
188.9519242
21
-36.2828005
0
LINE
8
0
10
188.9519242
20
-36.2828005
11
173.363467
21
-45.2828005
0
ENDSEC
0
EOF